<mxfile host="Electron" agent="Mozilla/5.0 (Windows NT 10.0; Win64; x64) AppleWebKit/537.36 (KHTML, like Gecko) draw.io/28.0.6 Chrome/138.0.7204.100 Electron/37.2.3 Safari/537.36" version="28.0.6">
  <diagram name="Page-1" id="J0jDcTdTuW3iA6Uvwu4c">
    <mxGraphModel dx="595" dy="358" grid="0" gridSize="10" guides="1" tooltips="1" connect="1" arrows="1" fold="1" page="1" pageScale="1" pageWidth="850" pageHeight="1100" background="#FFFFFF" math="0" shadow="0">
      <root>
        <mxCell id="0" />
        <mxCell id="1" parent="0" />
        <mxCell id="Pph7oQHx4fXSbqczSDpd-2" value="" style="shape=umlLifeline;perimeter=lifelinePerimeter;whiteSpace=wrap;html=1;container=1;dropTarget=0;collapsible=0;recursiveResize=0;outlineConnect=0;portConstraint=eastwest;newEdgeStyle={&quot;curved&quot;:0,&quot;rounded&quot;:0};participant=umlActor;fillColor=#eeeeee;strokeColor=#36393d;fontColor=light-dark(#000000,#000000);" parent="1" vertex="1">
          <mxGeometry x="110.5" y="76" width="20" height="509" as="geometry" />
        </mxCell>
        <mxCell id="Pph7oQHx4fXSbqczSDpd-3" value=":CertificateNFT" style="shape=umlLifeline;perimeter=lifelinePerimeter;whiteSpace=wrap;html=1;container=1;dropTarget=0;collapsible=0;recursiveResize=0;outlineConnect=0;portConstraint=eastwest;newEdgeStyle={&quot;curved&quot;:0,&quot;rounded&quot;:0};fillColor=#eeeeee;strokeColor=#36393d;fontColor=light-dark(#000000,#000000);" parent="1" vertex="1">
          <mxGeometry x="319.5" y="75" width="100" height="509" as="geometry" />
        </mxCell>
        <mxCell id="Pph7oQHx4fXSbqczSDpd-10" value="" style="html=1;points=[[0,0,0,0,5],[0,1,0,0,-5],[1,0,0,0,5],[1,1,0,0,-5]];perimeter=orthogonalPerimeter;outlineConnect=0;targetShapes=umlLifeline;portConstraint=eastwest;newEdgeStyle={&quot;curved&quot;:0,&quot;rounded&quot;:0};fillColor=#eeeeee;strokeColor=#36393d;fontColor=light-dark(#000000,#000000);" parent="Pph7oQHx4fXSbqczSDpd-3" vertex="1">
          <mxGeometry x="44" y="74" width="13" height="397" as="geometry" />
        </mxCell>
        <mxCell id="Pph7oQHx4fXSbqczSDpd-13" value="" style="html=1;points=[[0,0,0,0,5],[0,1,0,0,-5],[1,0,0,0,5],[1,1,0,0,-5]];perimeter=orthogonalPerimeter;outlineConnect=0;targetShapes=umlLifeline;portConstraint=eastwest;newEdgeStyle={&quot;curved&quot;:0,&quot;rounded&quot;:0};fillColor=#eeeeee;strokeColor=#36393d;fontColor=light-dark(#000000,#000000);" parent="Pph7oQHx4fXSbqczSDpd-3" vertex="1">
          <mxGeometry x="51.5" y="264" width="10" height="40" as="geometry" />
        </mxCell>
        <mxCell id="Pph7oQHx4fXSbqczSDpd-14" value="checkIssuerExistance(_issuer)" style="html=1;align=left;spacingLeft=2;endArrow=block;rounded=0;edgeStyle=orthogonalEdgeStyle;curved=0;rounded=0;fillColor=#eeeeee;strokeColor=#36393d;fontColor=light-dark(#000000,#000000);labelBackgroundColor=none;" parent="Pph7oQHx4fXSbqczSDpd-3" target="Pph7oQHx4fXSbqczSDpd-13" edge="1">
          <mxGeometry x="-0.0029" relative="1" as="geometry">
            <mxPoint x="56.5" y="252" as="sourcePoint" />
            <Array as="points">
              <mxPoint x="91.5" y="252" />
              <mxPoint x="91.5" y="270" />
            </Array>
            <mxPoint as="offset" />
          </mxGeometry>
        </mxCell>
        <mxCell id="Pph7oQHx4fXSbqczSDpd-11" value="grantIssuerRole(_issuer, role)" style="html=1;verticalAlign=bottom;endArrow=block;curved=0;rounded=0;entryX=0;entryY=0;entryDx=0;entryDy=5;fillColor=#eeeeee;strokeColor=#36393d;fontColor=light-dark(#000000,#000000);labelBackgroundColor=none;" parent="1" source="Pph7oQHx4fXSbqczSDpd-2" target="Pph7oQHx4fXSbqczSDpd-10" edge="1">
          <mxGeometry x="-0.0018" relative="1" as="geometry">
            <mxPoint x="293.5" y="150" as="sourcePoint" />
            <mxPoint as="offset" />
          </mxGeometry>
        </mxCell>
        <mxCell id="Pph7oQHx4fXSbqczSDpd-12" value="issuer added succesfully" style="html=1;verticalAlign=bottom;endArrow=open;dashed=1;endSize=8;curved=0;rounded=0;exitX=0;exitY=1;exitDx=0;exitDy=-5;fillColor=#eeeeee;strokeColor=#36393d;fontColor=light-dark(#000000,#000000);labelBackgroundColor=none;" parent="1" edge="1">
          <mxGeometry relative="1" as="geometry">
            <mxPoint x="120.23076923076928" y="537.999999999999" as="targetPoint" />
            <mxPoint x="363.5" y="537.999999999999" as="sourcePoint" />
          </mxGeometry>
        </mxCell>
        <mxCell id="Pph7oQHx4fXSbqczSDpd-16" value="alt" style="shape=umlFrame;whiteSpace=wrap;html=1;pointerEvents=0;width=32;height=26;fillColor=#eeeeee;strokeColor=#36393d;fontColor=light-dark(#000000,#000000);" parent="1" vertex="1">
          <mxGeometry x="82.5" y="387" width="589.5" height="172" as="geometry" />
        </mxCell>
        <mxCell id="Pph7oQHx4fXSbqczSDpd-17" value="" style="line;strokeWidth=1;fillColor=#eeeeee;align=left;verticalAlign=middle;spacingTop=-1;spacingLeft=3;spacingRight=3;rotatable=0;labelPosition=right;points=[];portConstraint=eastwest;strokeColor=#36393d;dashed=1;dashPattern=8 8;fontColor=light-dark(#000000,#000000);" parent="1" vertex="1">
          <mxGeometry x="82.5" y="473" width="588.5" height="8" as="geometry" />
        </mxCell>
        <mxCell id="Pph7oQHx4fXSbqczSDpd-18" value="[issuer already exist]" style="text;html=1;align=center;verticalAlign=middle;resizable=0;points=[];autosize=1;fillColor=none;fontSize=10;fontColor=#4D4D4D;" parent="1" vertex="1">
          <mxGeometry x="115" y="387" width="109" height="24" as="geometry" />
        </mxCell>
        <mxCell id="Pph7oQHx4fXSbqczSDpd-19" value="issuer already exist" style="html=1;verticalAlign=bottom;endArrow=open;dashed=1;endSize=8;curved=0;rounded=0;fillColor=#eeeeee;strokeColor=#36393d;fontColor=light-dark(#000000,#000000);labelBackgroundColor=none;" parent="1" edge="1">
          <mxGeometry x="0.0023" relative="1" as="geometry">
            <mxPoint x="362.5" y="437" as="sourcePoint" />
            <mxPoint x="120.31034482758616" y="437" as="targetPoint" />
            <mxPoint as="offset" />
          </mxGeometry>
        </mxCell>
        <mxCell id="Pph7oQHx4fXSbqczSDpd-20" value="[else]" style="text;html=1;align=center;verticalAlign=middle;resizable=0;points=[];autosize=1;fillColor=none;fontSize=10;fontColor=#4D4D4D;" parent="1" vertex="1">
          <mxGeometry x="115" y="477" width="42" height="24" as="geometry" />
        </mxCell>
        <mxCell id="Pph7oQHx4fXSbqczSDpd-23" value="&lt;span style=&quot;font-weight:600&quot; data-token-index=&quot;0&quot; class=&quot;notion-enable-hover&quot;&gt;Onboarding a New Institution&lt;/span&gt;" style="shape=umlFrame;whiteSpace=wrap;html=1;pointerEvents=0;width=195;height=27;fillColor=#eeeeee;strokeColor=#36393d;fontColor=light-dark(#000000,#000000);" parent="1" vertex="1">
          <mxGeometry x="18" y="17" width="708" height="587" as="geometry" />
        </mxCell>
        <mxCell id="Pph7oQHx4fXSbqczSDpd-26" value="alt" style="shape=umlFrame;whiteSpace=wrap;html=1;pointerEvents=0;width=32;height=26;fillColor=#eeeeee;strokeColor=#36393d;fontColor=light-dark(#000000,#000000);" parent="1" vertex="1">
          <mxGeometry x="63" y="241" width="632" height="328" as="geometry" />
        </mxCell>
        <mxCell id="Pph7oQHx4fXSbqczSDpd-27" value="" style="line;strokeWidth=1;fillColor=#eeeeee;align=left;verticalAlign=middle;spacingTop=-1;spacingLeft=3;spacingRight=3;rotatable=0;labelPosition=right;points=[];portConstraint=eastwest;strokeColor=#36393d;dashed=1;dashPattern=8 8;fontColor=light-dark(#000000,#000000);" parent="1" vertex="1">
          <mxGeometry x="65" y="315" width="630" height="8" as="geometry" />
        </mxCell>
        <mxCell id="Pph7oQHx4fXSbqczSDpd-28" value="[else]" style="text;align=center;verticalAlign=middle;resizable=0;points=[];autosize=1;fillColor=none;labelBorderColor=none;fontSize=10;fontColor=#4D4D4D;" parent="1" vertex="1">
          <mxGeometry x="115" y="317.5" width="42" height="24" as="geometry" />
        </mxCell>
        <mxCell id="Pph7oQHx4fXSbqczSDpd-29" value="[not an owner]" style="text;align=center;verticalAlign=middle;resizable=0;points=[];autosize=1;fillColor=none;html=1;fontSize=10;fontColor=#4D4D4D;" parent="1" vertex="1">
          <mxGeometry x="115" y="241" width="81" height="24" as="geometry" />
        </mxCell>
        <mxCell id="Pph7oQHx4fXSbqczSDpd-31" value="revert" style="html=1;verticalAlign=bottom;endArrow=open;dashed=1;endSize=8;curved=0;rounded=0;strokeColor=light-dark(#000000,#000000);labelBackgroundColor=none;fontColor=light-dark(#000000,#000000);" parent="1" target="Pph7oQHx4fXSbqczSDpd-2" edge="1">
          <mxGeometry relative="1" as="geometry">
            <mxPoint x="363" y="297" as="sourcePoint" />
            <mxPoint x="283" y="297" as="targetPoint" />
          </mxGeometry>
        </mxCell>
        <mxCell id="Pph7oQHx4fXSbqczSDpd-33" value="onlyRole(ADMIN_ROLE)" style="html=1;verticalAlign=bottom;endArrow=block;curved=0;rounded=0;strokeColor=light-dark(#000000,#000000);labelBackgroundColor=none;fontColor=light-dark(#000000,#000000);" parent="1" target="Pph7oQHx4fXSbqczSDpd-35" edge="1">
          <mxGeometry width="80" relative="1" as="geometry">
            <mxPoint x="377" y="182" as="sourcePoint" />
            <mxPoint x="457" y="182" as="targetPoint" />
          </mxGeometry>
        </mxCell>
        <mxCell id="Pph7oQHx4fXSbqczSDpd-34" value=":AccessControl" style="shape=umlLifeline;perimeter=lifelinePerimeter;whiteSpace=wrap;html=1;container=1;dropTarget=0;collapsible=0;recursiveResize=0;outlineConnect=0;portConstraint=eastwest;newEdgeStyle={&quot;curved&quot;:0,&quot;rounded&quot;:0};fillColor=#eeeeee;strokeColor=#36393d;fontColor=light-dark(#000000,#000000);" parent="1" vertex="1">
          <mxGeometry x="586" y="75" width="100" height="509" as="geometry" />
        </mxCell>
        <mxCell id="Pph7oQHx4fXSbqczSDpd-35" value="" style="html=1;points=[[0,0,0,0,5],[0,1,0,0,-5],[1,0,0,0,5],[1,1,0,0,-5]];perimeter=orthogonalPerimeter;outlineConnect=0;targetShapes=umlLifeline;portConstraint=eastwest;newEdgeStyle={&quot;curved&quot;:0,&quot;rounded&quot;:0};fillColor=#eeeeee;strokeColor=#36393d;fontColor=light-dark(#000000,#000000);" parent="Pph7oQHx4fXSbqczSDpd-34" vertex="1">
          <mxGeometry x="44" y="98" width="13" height="51" as="geometry" />
        </mxCell>
        <mxCell id="Pph7oQHx4fXSbqczSDpd-43" value="" style="html=1;points=[[0,0,0,0,5],[0,1,0,0,-5],[1,0,0,0,5],[1,1,0,0,-5]];perimeter=orthogonalPerimeter;outlineConnect=0;targetShapes=umlLifeline;portConstraint=eastwest;newEdgeStyle={&quot;curved&quot;:0,&quot;rounded&quot;:0};fillColor=#eeeeee;strokeColor=#36393d;fontColor=light-dark(#000000,#000000);" parent="Pph7oQHx4fXSbqczSDpd-34" vertex="1">
          <mxGeometry x="43.5" y="414" width="13" height="47" as="geometry" />
        </mxCell>
        <mxCell id="Pph7oQHx4fXSbqczSDpd-38" value="return" style="html=1;verticalAlign=bottom;endArrow=open;dashed=1;endSize=8;curved=0;rounded=0;strokeColor=light-dark(#000000,#000000);labelBackgroundColor=none;fontColor=light-dark(#000000,#000000);" parent="1" target="Pph7oQHx4fXSbqczSDpd-10" edge="1">
          <mxGeometry relative="1" as="geometry">
            <mxPoint x="630" y="211" as="sourcePoint" />
            <mxPoint x="550" y="211" as="targetPoint" />
          </mxGeometry>
        </mxCell>
        <mxCell id="Pph7oQHx4fXSbqczSDpd-39" value="owner: Owner" style="text;html=1;align=center;verticalAlign=middle;resizable=0;points=[];autosize=1;strokeColor=none;fillColor=none;labelBackgroundColor=default;" parent="1" vertex="1">
          <mxGeometry x="74.5" y="113" width="93" height="26" as="geometry" />
        </mxCell>
        <mxCell id="Pph7oQHx4fXSbqczSDpd-40" value="grantRole(role, account)" style="html=1;verticalAlign=bottom;endArrow=block;curved=0;rounded=0;strokeColor=light-dark(#000000,#000000);labelBackgroundColor=none;fontColor=light-dark(#000000,#000000);" parent="1" target="Pph7oQHx4fXSbqczSDpd-43" edge="1">
          <mxGeometry x="0.0002" width="80" relative="1" as="geometry">
            <mxPoint x="377" y="498" as="sourcePoint" />
            <mxPoint x="625" y="498" as="targetPoint" />
            <mxPoint as="offset" />
          </mxGeometry>
        </mxCell>
        <mxCell id="Pph7oQHx4fXSbqczSDpd-41" value="role granted" style="html=1;verticalAlign=bottom;endArrow=open;dashed=1;endSize=8;curved=0;rounded=0;labelBackgroundColor=none;fontColor=light-dark(#000000,#000000);strokeColor=light-dark(#000000,#000000);" parent="1" source="Pph7oQHx4fXSbqczSDpd-43" edge="1">
          <mxGeometry x="0.0003" relative="1" as="geometry">
            <mxPoint x="624" y="528" as="sourcePoint" />
            <mxPoint x="376.5" y="528" as="targetPoint" />
            <mxPoint as="offset" />
          </mxGeometry>
        </mxCell>
      </root>
    </mxGraphModel>
  </diagram>
</mxfile>
